<svg width="249" height="56" viewBox="0 0 249 56" fill="none" xmlns="http://www.w3.org/2000/svg">
<rect x="1" y="1" width="246.95" height="54" rx="1" fill="#854AF6"/>
<rect x="1" y="1" width="246.95" height="54" rx="1" stroke="#854AF6" stroke-width="2"/>
<path d="M184.392 34.2243C183.602 34.2243 182.904 34.059 182.296 33.7283C181.698 33.387 181.229 32.9123 180.888 32.3043C180.557 31.6857 180.392 30.9603 180.392 30.1283V29.9363C180.392 29.1043 180.557 28.3843 180.888 27.7763C181.218 27.1577 181.682 26.683 182.28 26.3523C182.877 26.011 183.57 25.8403 184.36 25.8403C185.138 25.8403 185.816 26.0163 186.392 26.3683C186.968 26.7097 187.416 27.1897 187.736 27.8083C188.056 28.4163 188.216 29.1257 188.216 29.9363V30.6243H182.44C182.461 31.1683 182.664 31.611 183.048 31.9523C183.432 32.2937 183.901 32.4643 184.456 32.4643C185.021 32.4643 185.437 32.3417 185.704 32.0963C185.97 31.851 186.173 31.579 186.312 31.2803L187.96 32.1443C187.81 32.4217 187.592 32.7257 187.304 33.0563C187.026 33.3763 186.653 33.6537 186.184 33.8883C185.714 34.1123 185.117 34.2243 184.392 34.2243ZM182.456 29.1203H186.168C186.125 28.6617 185.938 28.2937 185.608 28.0163C185.288 27.739 184.866 27.6003 184.344 27.6003C183.8 27.6003 183.368 27.739 183.048 28.0163C182.728 28.2937 182.53 28.6617 182.456 29.1203Z" fill="white"/>
<path d="M175.157 34.2243C174.368 34.2243 173.669 34.059 173.061 33.7283C172.464 33.387 171.995 32.9123 171.653 32.3043C171.323 31.6857 171.157 30.9603 171.157 30.1283V29.9363C171.157 29.1043 171.323 28.3843 171.653 27.7763C171.984 27.1577 172.448 26.683 173.045 26.3523C173.643 26.011 174.336 25.8403 175.125 25.8403C175.904 25.8403 176.581 26.0163 177.157 26.3683C177.733 26.7097 178.181 27.1897 178.501 27.8083C178.821 28.4163 178.981 29.1257 178.981 29.9363V30.6243H173.205C173.227 31.1683 173.429 31.611 173.813 31.9523C174.197 32.2937 174.667 32.4643 175.221 32.4643C175.787 32.4643 176.203 32.3417 176.469 32.0963C176.736 31.851 176.939 31.579 177.077 31.2803L178.725 32.1443C178.576 32.4217 178.357 32.7257 178.069 33.0563C177.792 33.3763 177.419 33.6537 176.949 33.8883C176.48 34.1123 175.883 34.2243 175.157 34.2243ZM173.221 29.1203H176.933C176.891 28.6617 176.704 28.2937 176.373 28.0163C176.053 27.739 175.632 27.6003 175.109 27.6003C174.565 27.6003 174.133 27.739 173.813 28.0163C173.493 28.2937 173.296 28.6617 173.221 29.1203Z" fill="white"/>
<path d="M165.479 34.0002V26.0642H167.464V26.9602H167.751C167.869 26.6402 168.061 26.4056 168.327 26.2562C168.605 26.1069 168.925 26.0322 169.287 26.0322H170.247V27.8242H169.255C168.743 27.8242 168.322 27.9629 167.992 28.2402C167.661 28.5069 167.495 28.9229 167.495 29.4882V34.0002H165.479Z" fill="white"/>
<path d="M159.823 34.0003V27.7283H157.807V26.0643H159.823V24.5923C159.823 24.0483 159.983 23.6163 160.303 23.2963C160.633 22.9656 161.06 22.8003 161.583 22.8003H163.663V24.4643H162.287C161.988 24.4643 161.839 24.6243 161.839 24.9443V26.0643H163.919V27.7283H161.839V34.0003H159.823Z" fill="white"/>
<path d="M149.353 34.2243C148.319 34.2243 147.471 34.0003 146.809 33.5523C146.148 33.1043 145.748 32.4643 145.609 31.6323L147.465 31.1523C147.54 31.5257 147.663 31.819 147.833 32.0323C148.015 32.2457 148.233 32.4003 148.489 32.4963C148.756 32.5817 149.044 32.6243 149.353 32.6243C149.823 32.6243 150.169 32.5443 150.393 32.3843C150.617 32.2137 150.729 32.0057 150.729 31.7603C150.729 31.515 150.623 31.3283 150.409 31.2003C150.196 31.0617 149.855 30.9497 149.385 30.8643L148.937 30.7843C148.383 30.6777 147.876 30.5337 147.417 30.3523C146.959 30.1603 146.591 29.899 146.313 29.5683C146.036 29.2377 145.897 28.811 145.897 28.2883C145.897 27.499 146.185 26.8963 146.761 26.4803C147.337 26.0537 148.095 25.8403 149.033 25.8403C149.919 25.8403 150.655 26.0377 151.241 26.4323C151.828 26.827 152.212 27.3443 152.393 27.9843L150.521 28.5603C150.436 28.155 150.26 27.867 149.993 27.6963C149.737 27.5257 149.417 27.4403 149.033 27.4403C148.649 27.4403 148.356 27.5097 148.153 27.6483C147.951 27.7763 147.849 27.9577 147.849 28.1923C147.849 28.4483 147.956 28.6403 148.169 28.7683C148.383 28.8857 148.671 28.9763 149.033 29.0403L149.481 29.1203C150.079 29.227 150.617 29.371 151.097 29.5523C151.588 29.723 151.972 29.9737 152.249 30.3043C152.537 30.6243 152.681 31.0617 152.681 31.6163C152.681 32.4483 152.377 33.0937 151.769 33.5523C151.172 34.0003 150.367 34.2243 149.353 34.2243Z" fill="white"/>
<path d="M141.655 27.7122V26.6242H142.279C142.77 26.6242 143.015 26.3788 143.015 25.8882V25.3762H142.743C142.316 25.3762 141.959 25.2482 141.671 24.9922C141.394 24.7362 141.255 24.4108 141.255 24.0162C141.255 23.5895 141.394 23.2428 141.671 22.9762C141.959 22.7095 142.316 22.5762 142.743 22.5762C143.18 22.5762 143.538 22.7148 143.815 22.9922C144.092 23.2588 144.231 23.6215 144.231 24.0802V25.9202C144.231 27.1148 143.634 27.7122 142.439 27.7122H141.655Z" fill="white"/>
<path d="M137.098 34.0001C136.575 34.0001 136.148 33.8401 135.818 33.5201C135.498 33.1894 135.338 32.7521 135.338 32.2081V27.7281H133.354V26.0641H135.338V23.6001H137.354V26.0641H139.53V27.7281H137.354V31.8561C137.354 32.1761 137.503 32.3361 137.802 32.3361H139.338V34.0001H137.098Z" fill="white"/>
<path d="M129.808 34.0002V26.0642H131.824V34.0002H129.808ZM130.816 25.1362C130.453 25.1362 130.144 25.0188 129.888 24.7842C129.642 24.5495 129.52 24.2402 129.52 23.8562C129.52 23.4722 129.642 23.1628 129.888 22.9282C130.144 22.6935 130.453 22.5762 130.816 22.5762C131.189 22.5762 131.498 22.6935 131.744 22.9282C131.989 23.1628 132.112 23.4722 132.112 23.8562C132.112 24.2402 131.989 24.5495 131.744 24.7842C131.498 25.0188 131.189 25.1362 130.816 25.1362Z" fill="white"/>
<path d="M119.229 30.8323V29.0083H123.965V30.8323H119.229Z" fill="white"/>
<path d="M108.616 34.2243C107.987 34.2243 107.395 34.0696 106.84 33.7603C106.296 33.4403 105.859 32.9763 105.528 32.3683C105.198 31.7603 105.032 31.0243 105.032 30.1603V29.9043C105.032 29.0403 105.198 28.3043 105.528 27.6963C105.859 27.0883 106.296 26.6296 106.84 26.3203C107.384 26.0003 107.976 25.8403 108.616 25.8403C109.096 25.8403 109.496 25.899 109.816 26.0163C110.147 26.123 110.414 26.2616 110.616 26.4323C110.819 26.603 110.974 26.7843 111.08 26.9763H111.368V22.8003H113.384V34.0003H111.4V33.0403H111.112C110.931 33.339 110.648 33.611 110.264 33.8563C109.891 34.1016 109.342 34.2243 108.616 34.2243ZM109.224 32.4643C109.843 32.4643 110.36 32.267 110.776 31.8723C111.192 31.467 111.4 30.8803 111.4 30.1123V29.9523C111.4 29.1843 111.192 28.603 110.776 28.2083C110.371 27.803 109.854 27.6003 109.224 27.6003C108.606 27.6003 108.088 27.803 107.672 28.2083C107.256 28.603 107.048 29.1843 107.048 29.9523V30.1123C107.048 30.8803 107.256 31.467 107.672 31.8723C108.088 32.267 108.606 32.4643 109.224 32.4643Z" fill="white"/>
<path d="M99.7979 34.2243C99.0085 34.2243 98.3099 34.059 97.7019 33.7283C97.1045 33.387 96.6352 32.9123 96.2939 32.3043C95.9632 31.6857 95.7979 30.9603 95.7979 30.1283V29.9363C95.7979 29.1043 95.9632 28.3843 96.2939 27.7763C96.6245 27.1577 97.0885 26.683 97.6859 26.3523C98.2832 26.011 98.9765 25.8403 99.7659 25.8403C100.545 25.8403 101.222 26.0163 101.798 26.3683C102.374 26.7097 102.822 27.1897 103.142 27.8083C103.462 28.4163 103.622 29.1257 103.622 29.9363V30.6243H97.8458C97.8672 31.1683 98.0698 31.611 98.4538 31.9523C98.8378 32.2937 99.3072 32.4643 99.8619 32.4643C100.427 32.4643 100.843 32.3417 101.11 32.0963C101.377 31.851 101.579 31.579 101.718 31.2803L103.366 32.1443C103.217 32.4217 102.998 32.7257 102.71 33.0563C102.433 33.3763 102.059 33.6537 101.59 33.8883C101.121 34.1123 100.523 34.2243 99.7979 34.2243ZM97.8619 29.1203H101.574C101.531 28.6617 101.345 28.2937 101.014 28.0163C100.694 27.739 100.273 27.6003 99.7499 27.6003C99.2059 27.6003 98.7738 27.739 98.4538 28.0163C98.1338 28.2937 97.9365 28.6617 97.8619 29.1203Z" fill="white"/>
<path d="M92.2069 34.0001C91.6842 34.0001 91.2576 33.8401 90.9269 33.5201C90.6069 33.1894 90.4469 32.7521 90.4469 32.2081V27.7281H88.4629V26.0641H90.4469V23.6001H92.4629V26.0641H94.6389V27.7281H92.4629V31.8561C92.4629 32.1761 92.6122 32.3361 92.9109 32.3361H94.4469V34.0001H92.2069Z" fill="white"/>
<path d="M82.8232 34.0002V26.0642H84.8072V26.9602H85.0952C85.2126 26.6402 85.4046 26.4056 85.6712 26.2562C85.9486 26.1069 86.2686 26.0322 86.6312 26.0322H87.5912V27.8242H86.5992C86.0872 27.8242 85.6659 27.9629 85.3352 28.2402C85.0046 28.5069 84.8392 28.9229 84.8392 29.4882V34.0002H82.8232Z" fill="white"/>
<path d="M76.0365 34.2243C75.4712 34.2243 74.9645 34.1283 74.5165 33.9363C74.0685 33.7337 73.7112 33.4457 73.4445 33.0723C73.1885 32.6883 73.0605 32.2243 73.0605 31.6803C73.0605 31.1363 73.1885 30.683 73.4445 30.3203C73.7112 29.947 74.0739 29.6697 74.5325 29.4883C75.0019 29.2963 75.5352 29.2003 76.1325 29.2003H78.3085V28.7523C78.3085 28.379 78.1912 28.075 77.9565 27.8403C77.7219 27.595 77.3485 27.4723 76.8365 27.4723C76.3352 27.4723 75.9619 27.5897 75.7165 27.8243C75.4712 28.0483 75.3112 28.3417 75.2365 28.7043L73.3805 28.0803C73.5085 27.675 73.7112 27.307 73.9885 26.9763C74.2765 26.635 74.6552 26.363 75.1245 26.1603C75.6045 25.947 76.1859 25.8403 76.8685 25.8403C77.9139 25.8403 78.7405 26.1017 79.3485 26.6243C79.9565 27.147 80.2605 27.9043 80.2605 28.8963V31.8563C80.2605 32.1763 80.4099 32.3363 80.7085 32.3363H81.3485V34.0003H80.0045C79.6099 34.0003 79.2845 33.9043 79.0285 33.7123C78.7725 33.5203 78.6445 33.2643 78.6445 32.9443V32.9283H78.3405C78.2979 33.0563 78.2019 33.227 78.0525 33.4403C77.9032 33.643 77.6685 33.8243 77.3485 33.9843C77.0285 34.1443 76.5912 34.2243 76.0365 34.2243ZM76.3885 32.5923C76.9539 32.5923 77.4125 32.4377 77.7645 32.1283C78.1272 31.8083 78.3085 31.387 78.3085 30.8643V30.7043H76.2765C75.9032 30.7043 75.6099 30.7843 75.3965 30.9443C75.1832 31.1043 75.0765 31.3283 75.0765 31.6163C75.0765 31.9043 75.1885 32.139 75.4125 32.3203C75.6365 32.5017 75.9619 32.5923 76.3885 32.5923Z" fill="white"/>
<path d="M69.3163 34.0001C68.7936 34.0001 68.3669 33.8401 68.0363 33.5201C67.7163 33.1894 67.5563 32.7521 67.5563 32.2081V27.7281H65.5723V26.0641H67.5563V23.6001H69.5723V26.0641H71.7483V27.7281H69.5723V31.8561C69.5723 32.1761 69.7216 32.3361 70.0203 32.3361H71.5563V34.0001H69.3163Z" fill="white"/>
<path d="M61.3377 34.2243C60.3031 34.2243 59.4551 34.0003 58.7938 33.5523C58.1324 33.1043 57.7324 32.4643 57.5938 31.6323L59.4497 31.1523C59.5244 31.5257 59.6471 31.819 59.8177 32.0323C59.9991 32.2457 60.2178 32.4003 60.4738 32.4963C60.7404 32.5817 61.0284 32.6243 61.3377 32.6243C61.8071 32.6243 62.1538 32.5443 62.3778 32.3843C62.6018 32.2137 62.7137 32.0057 62.7137 31.7603C62.7137 31.515 62.6071 31.3283 62.3937 31.2003C62.1804 31.0617 61.8391 30.9497 61.3698 30.8643L60.9217 30.7843C60.3671 30.6777 59.8604 30.5337 59.4017 30.3523C58.9431 30.1603 58.5751 29.899 58.2977 29.5683C58.0204 29.2377 57.8817 28.811 57.8817 28.2883C57.8817 27.499 58.1698 26.8963 58.7458 26.4803C59.3218 26.0537 60.0791 25.8403 61.0177 25.8403C61.9031 25.8403 62.6391 26.0377 63.2257 26.4323C63.8124 26.827 64.1964 27.3443 64.3778 27.9843L62.5057 28.5603C62.4204 28.155 62.2444 27.867 61.9777 27.6963C61.7217 27.5257 61.4017 27.4403 61.0177 27.4403C60.6337 27.4403 60.3404 27.5097 60.1377 27.6483C59.9351 27.7763 59.8337 27.9577 59.8337 28.1923C59.8337 28.4483 59.9404 28.6403 60.1537 28.7683C60.3671 28.8857 60.6551 28.9763 61.0177 29.0403L61.4657 29.1203C62.0631 29.227 62.6017 29.371 63.0817 29.5523C63.5724 29.723 63.9564 29.9737 64.2337 30.3043C64.5217 30.6243 64.6657 31.0617 64.6657 31.6163C64.6657 32.4483 64.3617 33.0937 63.7537 33.5523C63.1564 34.0003 62.3511 34.2243 61.3377 34.2243Z" fill="white"/>
<path d="M49.7225 34.0001C49.1998 34.0001 48.7732 33.8401 48.4425 33.5201C48.1225 33.1894 47.9625 32.7521 47.9625 32.2081V27.7281H45.9785V26.0641H47.9625V23.6001H49.9785V26.0641H52.1545V27.7281H49.9785V31.8561C49.9785 32.1761 50.1278 32.3361 50.4265 32.3361H51.9625V34.0001H49.7225Z" fill="white"/>
<path d="M41.3291 34.2243C40.5398 34.2243 39.8411 34.059 39.2331 33.7283C38.6358 33.387 38.1664 32.9123 37.8251 32.3043C37.4944 31.6857 37.3291 30.9603 37.3291 30.1283V29.9363C37.3291 29.1043 37.4944 28.3843 37.8251 27.7763C38.1558 27.1577 38.6198 26.683 39.2171 26.3523C39.8144 26.011 40.5078 25.8403 41.2971 25.8403C42.0758 25.8403 42.7531 26.0163 43.3291 26.3683C43.9051 26.7097 44.3531 27.1897 44.6731 27.8083C44.9931 28.4163 45.1531 29.1257 45.1531 29.9363V30.6243H39.3771C39.3984 31.1683 39.6011 31.611 39.9851 31.9523C40.3691 32.2937 40.8384 32.4643 41.3931 32.4643C41.9584 32.4643 42.3744 32.3417 42.6411 32.0963C42.9078 31.851 43.1104 31.579 43.2491 31.2803L44.8971 32.1443C44.7478 32.4217 44.5291 32.7257 44.2411 33.0563C43.9638 33.3763 43.5904 33.6537 43.1211 33.8883C42.6518 34.1123 42.0544 34.2243 41.3291 34.2243ZM39.3931 29.1203H43.1051C43.0624 28.6617 42.8758 28.2937 42.5451 28.0163C42.2251 27.739 41.8038 27.6003 41.2811 27.6003C40.7371 27.6003 40.3051 27.739 39.9851 28.0163C39.6651 28.2937 39.4678 28.6617 39.3931 29.1203Z" fill="white"/>
<path d="M30.9278 34.2242C30.1598 34.2242 29.4611 34.0535 28.8318 33.7122C28.2131 33.3602 27.7171 32.8535 27.3438 32.1922C26.9811 31.5202 26.7998 30.7042 26.7998 29.7442V27.0562C26.7998 25.6162 27.2051 24.5122 28.0158 23.7442C28.8265 22.9655 29.9251 22.5762 31.3118 22.5762C32.6878 22.5762 33.7491 22.9442 34.4958 23.6802C35.2531 24.4055 35.6318 25.3922 35.6318 26.6402V26.7042H33.5518V26.5762C33.5518 26.1815 33.4665 25.8242 33.2958 25.5042C33.1358 25.1842 32.8905 24.9335 32.5598 24.7522C32.2291 24.5602 31.8131 24.4642 31.3118 24.4642C30.5651 24.4642 29.9785 24.6935 29.5518 25.1522C29.1251 25.6108 28.9118 26.2348 28.9118 27.0242V29.7762C28.9118 30.5548 29.1251 31.1842 29.5518 31.6642C29.9785 32.1335 30.5758 32.3682 31.3438 32.3682C32.1118 32.3682 32.6718 32.1655 33.0238 31.7602C33.3758 31.3548 33.5518 30.8428 33.5518 30.2242V30.0642H30.8958V28.2722H35.6318V34.0002H33.6798V32.9282H33.3918C33.3171 33.1095 33.1945 33.3015 33.0238 33.5042C32.8638 33.7068 32.6185 33.8775 32.2878 34.0162C31.9571 34.1548 31.5038 34.2242 30.9278 34.2242Z" fill="white"/>
<path d="M212.243 23.2932C211.852 23.6842 211.852 24.3162 212.243 24.7072L214.536 27.0002H206.95C206.398 27.0002 205.95 27.4482 205.95 28.0002C205.95 28.5522 206.398 29.0002 206.95 29.0002H214.536L212.243 31.2932C211.852 31.6843 211.852 32.3162 212.243 32.7073C212.438 32.9023 212.694 33.0002 212.95 33.0002C213.206 33.0002 213.462 32.9023 213.657 32.7073L218.364 28.0003L213.657 23.2933C213.266 22.9022 212.634 22.9022 212.243 23.2933L212.243 23.2932Z" fill="white"/>
</svg>
