<svg width="182" height="56" viewBox="0 0 182 56" fill="none" xmlns="http://www.w3.org/2000/svg">
<rect x="1" y="1" width="179.97" height="54" rx="1" stroke="white" stroke-width="2"/>
<path d="M151.963 33.2243C150.928 33.2243 150.08 33.0003 149.419 32.5523C148.757 32.1043 148.357 31.4643 148.219 30.6323L150.075 30.1523C150.149 30.5257 150.272 30.819 150.443 31.0323C150.624 31.2457 150.843 31.4003 151.099 31.4963C151.365 31.5817 151.653 31.6243 151.963 31.6243C152.432 31.6243 152.779 31.5443 153.003 31.3843C153.227 31.2137 153.339 31.0057 153.339 30.7603C153.339 30.515 153.232 30.3283 153.019 30.2003C152.805 30.0617 152.464 29.9497 151.995 29.8643L151.547 29.7843C150.992 29.6777 150.485 29.5337 150.027 29.3523C149.568 29.1603 149.2 28.899 148.923 28.5683C148.645 28.2377 148.507 27.811 148.507 27.2883C148.507 26.499 148.795 25.8963 149.371 25.4803C149.947 25.0537 150.704 24.8403 151.643 24.8403C152.528 24.8403 153.264 25.0377 153.851 25.4323C154.437 25.827 154.821 26.3443 155.003 26.9843L153.131 27.5603C153.045 27.155 152.869 26.867 152.603 26.6963C152.347 26.5257 152.027 26.4403 151.643 26.4403C151.259 26.4403 150.965 26.5097 150.763 26.6483C150.56 26.7763 150.459 26.9577 150.459 27.1923C150.459 27.4483 150.565 27.6403 150.779 27.7683C150.992 27.8857 151.28 27.9763 151.643 28.0403L152.091 28.1203C152.688 28.227 153.227 28.371 153.707 28.5523C154.197 28.723 154.581 28.9737 154.859 29.3043C155.147 29.6243 155.291 30.0617 155.291 30.6163C155.291 31.4483 154.987 32.0937 154.379 32.5523C153.781 33.0003 152.976 33.2243 151.963 33.2243Z" fill="white"/>
<path d="M139.854 33.0003V21.8003H141.87V27.9923H142.158L144.782 25.0643H147.406L143.742 28.9043L147.534 33.0003H144.942L142.158 29.8483H141.87V33.0003H139.854Z" fill="white"/>
<path d="M133.511 33.0002V25.0642H135.495V25.9602H135.783C135.9 25.6402 136.092 25.4056 136.359 25.2562C136.636 25.1069 136.956 25.0322 137.319 25.0322H138.279V26.8242H137.287C136.775 26.8242 136.353 26.9629 136.023 27.2402C135.692 27.5069 135.527 27.9229 135.527 28.4882V33.0002H133.511Z" fill="white"/>
<path d="M127.49 33.2243C126.701 33.2243 125.991 33.0643 125.362 32.7443C124.733 32.4243 124.237 31.9603 123.874 31.3523C123.511 30.7443 123.33 30.0137 123.33 29.1603V28.9043C123.33 28.051 123.511 27.3203 123.874 26.7123C124.237 26.1043 124.733 25.6403 125.362 25.3203C125.991 25.0003 126.701 24.8403 127.49 24.8403C128.279 24.8403 128.989 25.0003 129.618 25.3203C130.247 25.6403 130.743 26.1043 131.106 26.7123C131.469 27.3203 131.65 28.051 131.65 28.9043V29.1603C131.65 30.0137 131.469 30.7443 131.106 31.3523C130.743 31.9603 130.247 32.4243 129.618 32.7443C128.989 33.0643 128.279 33.2243 127.49 33.2243ZM127.49 31.4323C128.109 31.4323 128.621 31.235 129.026 30.8403C129.431 30.435 129.634 29.859 129.634 29.1123V28.9523C129.634 28.2057 129.431 27.635 129.026 27.2403C128.631 26.835 128.119 26.6323 127.49 26.6323C126.871 26.6323 126.359 26.835 125.954 27.2403C125.549 27.635 125.346 28.2057 125.346 28.9523V29.1123C125.346 29.859 125.549 30.435 125.954 30.8403C126.359 31.235 126.871 31.4323 127.49 31.4323Z" fill="white"/>
<path d="M111.838 33L110.718 25.064H112.718L113.422 31.64H113.71L114.734 25.064H117.966L118.99 31.64H119.278L119.982 25.064H121.982L120.862 33H117.518L116.494 26.424H116.206L115.182 33H111.838Z" fill="white"/>
<path d="M102.879 33.0001C102.356 33.0001 101.929 32.8401 101.599 32.5201C101.279 32.1894 101.119 31.7521 101.119 31.2081V26.7281H99.1348V25.0641H101.119V22.6001H103.135V25.0641H105.311V26.7281H103.135V30.8561C103.135 31.1761 103.284 31.3361 103.583 31.3361H105.119V33.0001H102.879Z" fill="white"/>
<path d="M95.5888 33.0002V25.0642H97.6048V33.0002H95.5888ZM96.5968 24.1362C96.2341 24.1362 95.9248 24.0188 95.6688 23.7842C95.4234 23.5495 95.3008 23.2402 95.3008 22.8562C95.3008 22.4722 95.4234 22.1628 95.6688 21.9282C95.9248 21.6935 96.2341 21.5762 96.5968 21.5762C96.9701 21.5762 97.2794 21.6935 97.5248 21.9282C97.7701 22.1628 97.8928 22.4722 97.8928 22.8562C97.8928 23.2402 97.7701 23.5495 97.5248 23.7842C97.2794 24.0188 96.9701 24.1362 96.5968 24.1362Z" fill="white"/>
<path d="M79.619 33L78.499 25.064H80.499L81.203 31.64H81.491L82.515 25.064H85.747L86.771 31.64H87.059L87.763 25.064H89.763L88.643 33H85.299L84.275 26.424H83.987L82.963 33H79.619Z" fill="white"/>
<path d="M72.9901 33.2243C72.2007 33.2243 71.4914 33.0643 70.8621 32.7443C70.2327 32.4243 69.7367 31.9603 69.3741 31.3523C69.0114 30.7443 68.8301 30.0137 68.8301 29.1603V28.9043C68.8301 28.051 69.0114 27.3203 69.3741 26.7123C69.7367 26.1043 70.2327 25.6403 70.8621 25.3203C71.4914 25.0003 72.2007 24.8403 72.9901 24.8403C73.7794 24.8403 74.4887 25.0003 75.1181 25.3203C75.7474 25.6403 76.2434 26.1043 76.6061 26.7123C76.9687 27.3203 77.1501 28.051 77.1501 28.9043V29.1603C77.1501 30.0137 76.9687 30.7443 76.6061 31.3523C76.2434 31.9603 75.7474 32.4243 75.1181 32.7443C74.4887 33.0643 73.7794 33.2243 72.9901 33.2243ZM72.9901 31.4323C73.6087 31.4323 74.1207 31.235 74.5261 30.8403C74.9314 30.435 75.1341 29.859 75.1341 29.1123V28.9523C75.1341 28.2057 74.9314 27.635 74.5261 27.2403C74.1314 26.835 73.6194 26.6323 72.9901 26.6323C72.3714 26.6323 71.8594 26.835 71.4541 27.2403C71.0487 27.635 70.8461 28.2057 70.8461 28.9523V29.1123C70.8461 29.859 71.0487 30.435 71.4541 30.8403C71.8594 31.235 72.3714 31.4323 72.9901 31.4323Z" fill="white"/>
<path d="M59.3545 33.0003V21.8003H61.3705V26.0403H61.6585C61.7438 25.8696 61.8772 25.699 62.0585 25.5283C62.2398 25.3576 62.4798 25.219 62.7785 25.1123C63.0878 24.995 63.4772 24.9363 63.9465 24.9363C64.5652 24.9363 65.1038 25.0803 65.5625 25.3683C66.0318 25.6456 66.3945 26.035 66.6505 26.5363C66.9065 27.027 67.0345 27.603 67.0345 28.2643V33.0003H65.0185V28.4243C65.0185 27.827 64.8692 27.379 64.5705 27.0803C64.2825 26.7816 63.8665 26.6323 63.3225 26.6323C62.7038 26.6323 62.2238 26.8403 61.8825 27.2563C61.5412 27.6616 61.3705 28.2323 61.3705 28.9683V33.0003H59.3545Z" fill="white"/>
<path d="M49.6738 33.2243C48.8845 33.2243 48.1858 33.059 47.5778 32.7283C46.9805 32.387 46.5112 31.9123 46.1698 31.3043C45.8392 30.6857 45.6738 29.9603 45.6738 29.1283V28.9363C45.6738 28.1043 45.8392 27.3843 46.1698 26.7763C46.5005 26.1577 46.9645 25.683 47.5618 25.3523C48.1592 25.011 48.8525 24.8403 49.6418 24.8403C50.4205 24.8403 51.0978 25.0163 51.6738 25.3683C52.2498 25.7097 52.6978 26.1897 53.0178 26.8083C53.3378 27.4163 53.4978 28.1257 53.4978 28.9363V29.6243H47.7218C47.7432 30.1683 47.9458 30.611 48.3298 30.9523C48.7138 31.2937 49.1832 31.4643 49.7378 31.4643C50.3032 31.4643 50.7192 31.3417 50.9858 31.0963C51.2525 30.851 51.4552 30.579 51.5938 30.2803L53.2418 31.1443C53.0925 31.4217 52.8738 31.7257 52.5858 32.0563C52.3085 32.3763 51.9352 32.6537 51.4658 32.8883C50.9965 33.1123 50.3992 33.2243 49.6738 33.2243ZM47.7378 28.1203H51.4498C51.4072 27.6617 51.2205 27.2937 50.8898 27.0163C50.5698 26.739 50.1485 26.6003 49.6258 26.6003C49.0818 26.6003 48.6498 26.739 48.3298 27.0163C48.0098 27.2937 47.8125 27.6617 47.7378 28.1203Z" fill="white"/>
<path d="M40.4395 33.2243C39.6501 33.2243 38.9515 33.059 38.3435 32.7283C37.7461 32.387 37.2768 31.9123 36.9355 31.3043C36.6048 30.6857 36.4395 29.9603 36.4395 29.1283V28.9363C36.4395 28.1043 36.6048 27.3843 36.9355 26.7763C37.2661 26.1577 37.7301 25.683 38.3275 25.3523C38.9248 25.011 39.6181 24.8403 40.4075 24.8403C41.1861 24.8403 41.8635 25.0163 42.4395 25.3683C43.0155 25.7097 43.4635 26.1897 43.7835 26.8083C44.1035 27.4163 44.2635 28.1257 44.2635 28.9363V29.6243H38.4875C38.5088 30.1683 38.7115 30.611 39.0955 30.9523C39.4795 31.2937 39.9488 31.4643 40.5035 31.4643C41.0688 31.4643 41.4848 31.3417 41.7515 31.0963C42.0181 30.851 42.2208 30.579 42.3595 30.2803L44.0075 31.1443C43.8581 31.4217 43.6395 31.7257 43.3515 32.0563C43.0741 32.3763 42.7008 32.6537 42.2315 32.8883C41.7621 33.1123 41.1648 33.2243 40.4395 33.2243ZM38.5035 28.1203H42.2155C42.1728 27.6617 41.9861 27.2937 41.6555 27.0163C41.3355 26.739 40.9141 26.6003 40.3915 26.6003C39.8475 26.6003 39.4155 26.739 39.0955 27.0163C38.7755 27.2937 38.5781 27.6617 38.5035 28.1203Z" fill="white"/>
<path d="M30.9439 33.2242C30.0799 33.2242 29.3173 33.0695 28.6559 32.7602C27.9946 32.4508 27.4773 32.0082 27.1039 31.4322C26.7306 30.8562 26.5439 30.1628 26.5439 29.3522V28.9042H28.6239V29.3522C28.6239 30.0242 28.8319 30.5308 29.2479 30.8722C29.6639 31.2028 30.2293 31.3682 30.9439 31.3682C31.6693 31.3682 32.2079 31.2242 32.5599 30.9362C32.9226 30.6482 33.1039 30.2802 33.1039 29.8322C33.1039 29.5228 33.0133 29.2722 32.8319 29.0802C32.6613 28.8882 32.4053 28.7335 32.0639 28.6162C31.7333 28.4882 31.3279 28.3708 30.8479 28.2642L30.4799 28.1842C29.7119 28.0135 29.0506 27.8002 28.4959 27.5442C27.9519 27.2775 27.5306 26.9308 27.2319 26.5042C26.9439 26.0775 26.7999 25.5228 26.7999 24.8402C26.7999 24.1575 26.9599 23.5762 27.2799 23.0962C27.6106 22.6055 28.0693 22.2322 28.6559 21.9762C29.2533 21.7095 29.9519 21.5762 30.7519 21.5762C31.5519 21.5762 32.2613 21.7148 32.8799 21.9922C33.5093 22.2588 33.9999 22.6642 34.3519 23.2082C34.7146 23.7415 34.8959 24.4135 34.8959 25.2242V25.7042H32.8159V25.2242C32.8159 24.7975 32.7306 24.4562 32.5599 24.2002C32.3999 23.9335 32.1653 23.7415 31.8559 23.6242C31.5466 23.4962 31.1786 23.4322 30.7519 23.4322C30.1119 23.4322 29.6373 23.5548 29.3279 23.8002C29.0293 24.0348 28.8799 24.3602 28.8799 24.7762C28.8799 25.0535 28.9493 25.2882 29.0879 25.4802C29.2373 25.6722 29.4559 25.8322 29.7439 25.9602C30.0319 26.0882 30.3999 26.2002 30.8479 26.2962L31.2159 26.3762C32.0159 26.5468 32.7093 26.7655 33.2959 27.0322C33.8933 27.2988 34.3573 27.6508 34.6879 28.0882C35.0186 28.5255 35.1839 29.0855 35.1839 29.7682C35.1839 30.4508 35.0079 31.0535 34.6559 31.5762C34.3146 32.0882 33.8239 32.4935 33.1839 32.7922C32.5546 33.0802 31.8079 33.2242 30.9439 33.2242Z" fill="white"/>
</svg>
