<svg width="9" height="10" viewBox="0 0 9 10" fill="none" xmlns="http://www.w3.org/2000/svg">
<path d="M4.97927 7.05375L8.06177 3.5625C8.13931 3.47461 8.19176 3.36324 8.21256 3.24235C8.23336 3.12147 8.22157 2.99645 8.17868 2.88298C8.13579 2.76951 8.0637 2.67263 7.97145 2.6045C7.87921 2.53637 7.77091 2.50002 7.66014 2.5H1.37589C1.26418 2.50002 1.155 2.537 1.06227 2.60622C0.969545 2.67545 0.897469 2.77378 0.855231 2.8887C0.812993 3.00361 0.802508 3.12989 0.82511 3.25145C0.847713 3.37301 0.902381 3.48434 0.982145 3.57125L4.18502 7.0625C4.29154 7.17852 4.43518 7.24277 4.58434 7.24113C4.7335 7.23949 4.87483 7.17209 4.97927 7.05375Z" fill="#161616"/>
</svg>
