<svg width="8" height="10" viewBox="0 0 8 10" fill="none" xmlns="http://www.w3.org/2000/svg">
<path d="M4.42558 7.05375L7.16558 3.5625C7.2345 3.47461 7.28113 3.36324 7.29962 3.24235C7.31811 3.12147 7.30763 2.99645 7.2695 2.88298C7.23138 2.76951 7.1673 2.67263 7.0853 2.6045C7.00331 2.53637 6.90704 2.50002 6.80858 2.5H1.22258C1.12328 2.50002 1.02623 2.537 0.943809 2.60622C0.861384 2.67545 0.797316 2.77378 0.759771 2.8887C0.722227 3.00361 0.712906 3.12989 0.732997 3.25145C0.753089 3.37301 0.801682 3.48434 0.872584 3.57125L3.71958 7.0625C3.81427 7.17852 3.94195 7.24277 4.07453 7.24113C4.20712 7.23949 4.33275 7.17209 4.42558 7.05375Z" fill="#161616"/>
</svg>
